# xmcd
#
# Track frame offsets:
#	150
#	14855
#	33085
#	49592
#	60177
#	74165
#	87412
#	106962
#	117952
#	127897
#
# Disc length: 1902 seconds
#
# Revision: 0
# Processed by: cddbd v1.5.1PL0 Copyright (c) Steve Scherf et al.
# Submitted via: dBpowerAMP V4.0
#
DISCID=83076c0a
DTITLE=Miss Derringer - King James, Crown Royal and a Colt 45
DYEAR=1900
DGENRE=Americana
TTITLE0=The Letter
TTITLE1=Dear Johnny
TTITLE2=Devil in the White City
TTITLE3=Lordy
TTITLE4=Texas
TTITLE5=Corpus Christi
TTITLE6=Twelve-oh-six
TTITLE7=Long Way from Home
TTITLE8=Open Casket Funeral
TTITLE9=Confession
EXTD=
EXTT0=
EXTT1=
EXTT2=
EXTT3=
EXTT4=
EXTT5=
EXTT6=
EXTT7=
EXTT8=
EXTT9=
PLAYORDER=
